HIERARCHY
ROOT Hips
{
	OFFSET -0.179506 -22.333345 2.821913
	CHANNELS 6 Xposition Yposition Zposition Zrotation Yrotation Xrotation 
	JOINT LeftUpLeg
	{
		OFFSET 6.951974 -9.140623 -0.681533
		CHANNELS 3 Zrotation Yrotation Xrotation
		JOINT LeftLeg
		{
			OFFSET 3.427654 -37.519855 -0.449580
			CHANNELS 3 Zrotation Yrotation Xrotation
			JOINT LeftFoot
			{
				OFFSET -1.359570 -39.796059 -4.369333
				CHANNELS 3 Zrotation Yrotation Xrotation
				JOINT LeftToe
				{
					OFFSET 2.635814 -5.579078 11.928840
					CHANNELS 3 Zrotation Yrotation Xrotation
					End Site
					{
						OFFSET 0.000000 0.000000 0.000000
					}
				}
			}
		}
	}
	JOINT RightUpLeg
	{
		OFFSET -6.767048 -9.052170 -0.431982
		CHANNELS 3 Zrotation Yrotation Xrotation
		JOINT RightLeg
		{
			OFFSET -3.829005 -38.256897 -0.885003
			CHANNELS 3 Zrotation Yrotation Xrotation
			JOINT RightFoot
			{
				OFFSET 1.577377 -39.841461 -4.231180
				CHANNELS 3 Zrotation Yrotation Xrotation
				JOINT RightToe
				{
					OFFSET -2.537174 -4.814398 12.334795
					CHANNELS 3 Zrotation Yrotation Xrotation
					End Site
					{
						OFFSET 0.000000 0.000000 0.000000
					}
				}
			}
		}
	}
	JOINT Spine
	{
		OFFSET -0.253288 10.896323 -2.669631
		CHANNELS 3 Zrotation Yrotation Xrotation
		JOINT Spine1
		{
			OFFSET 0.548704 13.518043 0.109247
			CHANNELS 3 Zrotation Yrotation Xrotation
			JOINT Spine2
			{
				OFFSET 0.145701 5.292222 2.542457
				CHANNELS 3 Zrotation Yrotation Xrotation
				JOINT Neck
				{
					OFFSET -0.277840 21.387037 -4.285703
					CHANNELS 3 Zrotation Yrotation Xrotation
					JOINT Head
					{
						OFFSET 0.515184 6.496960 5.134897
						CHANNELS 3 Zrotation Yrotation Xrotation
						End Site
						{
							OFFSET 0.000000 0.000000 0.000000
						}
					}
				}
				JOINT LeftShoulder
				{
					OFFSET 7.884473 12.174932 -3.408961
					CHANNELS 3 Zrotation Yrotation Xrotation
					JOINT LeftArm
					{
						OFFSET 9.097692 3.046888 -0.886815
						CHANNELS 3 Zrotation Yrotation Xrotation
						JOINT LeftForeArm
						{
							OFFSET 25.961220 -1.277207 -2.745643
							CHANNELS 3 Zrotation Yrotation Xrotation
							JOINT LeftHand
							{
								OFFSET 24.923361 0.898606 -0.117091
								CHANNELS 3 Zrotation Yrotation Xrotation
								End Site
								{
									OFFSET 0.000000 0.000000 0.000000
								}
							}
						}
					}
				}
				JOINT RightShoulder
				{
					OFFSET -8.175920 11.883285 -3.861528
					CHANNELS 3 Zrotation Yrotation Xrotation
					JOINT RightArm
					{
						OFFSET -9.601238 3.255117 -0.914307
						CHANNELS 3 Zrotation Yrotation Xrotation
						JOINT RightForeArm
						{
							OFFSET -25.374195 -1.332924 -2.140099
							CHANNELS 3 Zrotation Yrotation Xrotation
							JOINT RightHand
							{
								OFFSET -25.529810 0.777228 -0.555919
								CHANNELS 3 Zrotation Yrotation Xrotation
								End Site
								{
									OFFSET 0.000000 0.000000 0.000000
								}
							}
						}
					}
				}
			}
		}
	}
}
MOTION
Frames: 15
Frame Time: 0.033333
-31.864685 26.811617 97.273544 176.482725 0.035471 89.727336 -1.202535 1.449016 12.747208 6.275434 -12.544197 -10.949426 -1.519900 15.772447 -3.179942 nan nan nan 2.822629 -3.136570 10.292002 -1.276455 9.983420 -10.621279 7.432668 -18.631134 -1.277663 nan nan nan -1.902685 3.056088 -4.088702 2.088493 -5.690141 -6.553393 2.712844 3.719491 -0.168958 -11.033851 -7.416512 2.096961 14.592937 1.932479 -17.130928 29.223829 -21.579783 -20.984437 18.050780 -34.922099 -36.088555 3.108547 -21.869856 -45.254495 -9.518868 -10.311190 -74.549408 -31.348000 18.887821 -21.197946 -18.101115 34.634437 -47.894599 -6.107551 15.675818 -38.068024 21.627917 -4.087861 -39.383365 
-31.826654 26.857883 97.320618 176.572046 0.043709 89.789459 -1.180895 1.399847 12.665303 6.308119 -12.581030 -10.944005 -1.505208 15.815961 -3.001509 nan nan nan 2.886307 -3.189362 10.266407 -1.315461 10.078594 -10.683910 7.572240 -18.770728 -1.177250 nan nan nan -1.765688 3.050633 -3.980566 1.965162 -5.751687 -6.759322 2.614738 3.613595 -0.045270 -10.902945 -7.378902 2.064142 14.646253 2.163920 -17.406175 29.731482 -21.529240 -21.350802 17.799798 -34.754970 -36.040034 3.234971 -21.624925 -45.110162 -9.492698 -10.108483 -74.369760 -31.787565 18.744938 -21.680043 -17.789014 34.710111 -47.991803 -6.152266 15.373954 -37.594875 21.748010 -4.200598 -38.869335 
-31.788069 26.907139 97.369171 176.616617 0.036021 89.816340 -1.129823 1.468694 12.676730 6.326352 -12.721714 -11.015312 -1.574242 15.835643 -2.888092 nan nan nan 2.882927 -3.279187 10.304201 -1.315458 10.229596 -10.770052 7.748432 -18.906990 -1.123535 nan nan nan -1.913757 3.044527 -3.873630 2.023194 -5.772081 -6.638141 2.819752 3.666499 -0.118310 -10.764788 -7.424188 1.464700 14.421024 2.069837 -17.321019 30.065557 -21.469949 -21.670476 17.873886 -34.555692 -36.339710 3.143014 -21.371105 -45.302593 -9.488675 -9.702409 -74.108556 -31.784750 19.075404 -20.884986 -19.200073 33.542486 -48.684539 -5.849892 15.455633 -37.704852 21.853082 -4.368328 -38.927422 
-31.753311 26.931149 97.430313 176.685349 0.011421 89.904823 -1.126119 1.455510 12.607870 6.342000 -12.769095 -11.110878 -1.573249 15.903173 -2.662648 nan nan nan 2.901725 -3.244995 10.260397 -1.332957 10.361628 -10.890087 7.888810 -19.133666 -1.068647 nan nan nan -1.890932 3.034699 -3.658148 1.959871 -5.748216 -6.977681 2.836487 3.645443 -0.027726 -10.646839 -7.559866 1.183853 14.357658 2.015643 -17.170092 30.364172 -21.468835 -21.834188 18.049618 -34.478604 -36.555997 3.073599 -21.029443 -45.430486 -8.962594 -9.270659 -74.130958 -32.308564 18.760377 -21.424415 -19.021307 33.610093 -48.571802 -5.625957 14.853510 -38.027445 21.318698 -4.427541 -39.294696 
-31.713730 26.940979 97.483582 176.810664 -0.007492 90.073599 -1.140819 1.350349 12.365820 6.351433 -12.845010 -11.093461 -1.549728 16.045114 -2.429357 nan nan nan 2.942327 -3.195509 10.090221 -1.312471 10.423043 -10.962073 7.958237 -19.352874 -1.019908 nan nan nan -1.810063 3.012089 -3.523733 1.867724 -5.767220 -7.285274 2.728322 3.585001 0.067594 -10.569250 -7.636631 0.700290 14.621860 1.739103 -16.727006 30.517039 -21.562088 -21.789050 18.655818 -34.290749 -36.816951 3.010578 -20.658318 -45.647975 -8.583283 -8.876373 -74.046608 -32.524186 18.623810 -21.749982 -19.064327 33.563339 -48.546606 -5.598747 14.452601 -38.233569 20.817433 -4.635882 -39.170590 
-31.672865 26.958683 97.535500 176.889841 0.007385 90.167679 -1.094778 1.348340 12.246358 6.371870 -12.983263 -11.115102 -1.667695 16.152697 -2.353653 nan nan nan 2.984618 -3.242332 9.962979 -1.280302 10.397134 -10.910978 7.702001 -19.415211 -0.952810 nan nan nan -1.755092 2.968645 -3.360390 1.868427 -5.792822 -7.243652 2.887030 3.529189 0.023316 -10.735154 -7.682286 0.506716 14.451689 1.958863 -17.541654 30.454838 -21.526900 -21.892235 19.227645 -33.865235 -37.062123 2.761133 -20.444635 -45.914472 -8.599801 -8.659827 -73.949039 -32.717996 18.921306 -21.049929 -20.277601 32.603685 -49.252288 -5.548032 14.384656 -38.330210 21.092944 -4.582702 -39.345564 
-31.618696 26.981058 97.593666 176.984563 0.005588 90.238551 -1.028409 1.315306 12.171999 6.354827 -13.038793 -11.157970 -1.692109 16.157674 -2.225567 nan nan nan 3.051775 -3.263476 9.912786 -1.310917 10.383434 -10.938402 7.464983 -19.538107 -0.861365 nan nan nan -1.646937 2.933617 -3.208294 1.780593 -5.823736 -7.342588 2.880805 3.408923 0.089892 -10.755236 -7.555105 0.413463 14.544104 2.106909 -18.209670 30.775839 -21.395684 -22.156746 19.544528 -33.577541 -37.293937 2.344364 -19.940960 -46.014790 -8.702970 -8.986575 -74.062579 -33.119672 18.833824 -21.213434 -20.458942 32.428994 -49.694259 -5.559447 14.026533 -38.327578 21.478345 -4.403032 -39.322922 
-31.582766 27.011810 97.652618 177.092854 0.017396 90.322360 -0.966754 1.249953 12.097511 6.351596 -13.083568 -11.247978 -1.769240 16.181571 -2.044294 nan nan nan 3.111204 -3.252202 9.890492 -1.317830 10.436862 -11.067238 7.628932 -19.715643 -0.757115 nan nan nan -1.554960 2.893273 -3.063852 1.723045 -5.844640 -7.582201 2.910362 3.325440 0.302930 -10.652234 -7.512974 0.076342 14.428729 2.227674 -18.427929 31.128951 -21.310297 -22.335407 19.593841 -33.293899 -37.466067 2.359758 -19.664502 -45.952920 -8.651921 -8.972157 -74.261528 -33.616875 18.672191 -21.370603 -20.482530 32.251807 -49.993611 -5.566891 13.807178 -38.204975 21.540140 -4.561836 -39.216666 
-31.540678 27.039209 97.710396 177.185874 0.031810 90.425022 -0.900243 1.186819 11.985951 6.342644 -13.181299 -11.303404 -1.970020 16.278348 -1.896261 nan nan nan 3.184811 -3.241897 9.817412 -1.336079 10.500852 -11.146350 7.801388 -19.882626 -0.634449 nan nan nan -1.568036 2.857319 -2.888165 1.748542 -5.871761 -7.790857 3.024967 3.328289 0.433268 -10.664912 -7.486174 -0.354879 14.383389 2.167867 -18.565410 31.345505 -21.280933 -22.636884 19.748882 -33.103231 -37.574158 2.346393 -19.371071 -46.145983 -8.596024 -8.290045 -73.750037 -33.725289 18.834772 -21.358123 -21.149491 31.764120 -49.999969 -5.448226 13.720706 -37.923554 21.334495 -5.097230 -38.832066 
-31.507118 27.064051 97.781189 177.291790 0.023290 90.579961 -0.857405 1.111640 11.775509 6.324293 -13.143626 -11.306986 -2.089373 16.244419 -1.677957 nan nan nan 3.269922 -3.154138 9.639938 -1.371063 10.448115 -11.160134 7.955449 -19.975471 -0.488365 nan nan nan -1.458165 2.831397 -2.767372 1.640798 -5.875797 -8.175203 2.912764 3.288683 0.702610 -10.665537 -7.261902 -0.165325 14.832889 2.049471 -19.376504 31.891149 -21.136820 -22.816161 19.670342 -32.965979 -37.624529 2.491297 -19.063339 -46.280173 -8.970958 -8.314979 -73.581376 -34.364460 18.367694 -22.041284 -20.096103 32.093667 -49.558308 -5.985510 13.654707 -37.384804 21.259045 -5.507688 -38.655342 
-31.471640 27.085329 97.814552 177.354055 0.014321 90.674155 -0.801460 1.233085 11.666603 6.372442 -13.388832 -11.360880 -2.182400 16.346426 -1.519064 nan nan nan 3.290962 -3.152003 9.559295 -1.365725 10.620931 -11.225591 7.940989 -20.196067 -0.292698 nan nan nan -1.507719 2.794531 -2.572723 1.735451 -5.892735 -7.987966 2.969831 3.315137 0.504915 -10.620036 -7.308124 -1.006592 14.746406 1.990877 -19.341773 32.215046 -21.580777 -21.655676 20.439303 -31.133990 -37.887404 2.724156 -19.725460 -46.795968 -8.686392 -8.199580 -74.438587 -34.381834 18.742580 -21.217542 -21.320027 30.816849 -50.023475 -5.930263 13.821300 -37.447416 21.337220 -5.469867 -39.326334 
-31.444395 27.096329 97.881149 177.437371 0.014713 90.794173 -0.728806 1.309492 11.533737 6.412947 -13.653059 -11.455926 -2.256143 16.481855 -1.269144 nan nan nan 3.350747 -3.145062 9.421074 -1.367706 10.761959 -11.235097 7.932428 -20.545533 -0.173243 nan nan nan -1.565221 2.728342 -2.473454 1.789890 -5.956555 -8.056718 3.009021 3.244334 0.503799 -10.558092 -7.419241 -1.356137 14.705070 2.198928 -19.268409 32.678897 -22.289363 -20.856615 20.921228 -29.358343 -38.010079 2.863201 -20.044692 -46.935367 -7.946736 -7.765512 -75.019005 -34.627798 18.987986 -21.417020 -21.708050 30.263353 -50.331117 -5.486940 13.597163 -37.342510 21.031763 -5.481533 -39.362503 
-31.426281 27.092657 97.959763 177.496740 -0.041743 90.992890 -0.756928 1.257683 11.258311 6.443136 -13.730049 -11.443079 -2.378715 16.548863 -1.018043 nan nan nan 3.358268 -3.103638 9.126049 -1.364679 10.796610 -11.136688 7.792881 -20.738840 -0.067309 nan nan nan -1.598558 2.699994 -2.422134 1.763973 -5.976112 -8.175584 3.011681 3.161939 0.507966 -10.556818 -7.426410 -1.424049 14.782474 2.199457 -19.522971 33.024887 -22.562579 -20.704692 21.211366 -28.503660 -38.064651 2.720862 -19.928040 -46.961199 -7.934505 -8.057983 -75.508903 -34.903653 19.035120 -21.646138 -21.918684 30.043991 -50.531272 -5.291722 13.224864 -37.277856 20.903113 -5.503409 -39.373324 
-31.393862 27.093452 98.043137 177.570695 -0.117683 91.146384 -0.754641 1.215780 11.013956 6.395997 -13.877755 -11.397089 -2.606422 16.585641 -0.815528 nan nan nan 3.335867 -3.087528 8.879496 -1.349374 10.817288 -11.038461 7.552522 -20.868333 0.075793 nan nan nan -1.654403 2.701136 -2.256112 1.692012 -5.905956 -8.398605 3.049011 3.191836 0.548518 -10.634869 -7.472907 -1.437545 15.033774 1.947721 -20.094936 33.297647 -22.707991 -20.636278 21.664103 -28.183017 -38.527157 2.508408 -19.403595 -47.016989 -8.181667 -8.539895 -75.769982 -35.322576 18.748799 -21.898535 -21.777378 29.898940 -50.610705 -5.167767 12.904688 -37.016006 21.372136 -5.225090 -39.624195 
-31.348072 27.103186 98.114571 177.603452 -0.098141 91.136611 -0.614882 1.335097 11.002072 6.327218 -14.032733 -11.455663 -2.824305 16.679217 -0.648596 nan nan nan 3.394389 -3.135578 8.851524 -1.331676 10.900947 -11.018230 7.447290 -21.017864 0.231736 nan nan nan -1.751443 2.705045 -1.936548 1.721689 -5.807136 -8.523174 3.298991 3.386035 0.625007 -10.720064 -7.492086 -1.821183 15.115978 1.435640 -20.483295 33.425639 -22.902974 -20.638663 22.410927 -27.945586 -39.406011 2.157700 -18.623529 -47.236182 -7.974093 -8.551171 -75.240911 -35.798925 18.682417 -21.839800 -22.056781 29.089874 -50.679265 -4.931316 12.646810 -37.039606 21.974081 -4.694839 -40.298512 
